<?xml version="1.0" encoding="UTF-8"?>
<svg xmlns="http://www.w3.org/2000/svg" xmlns:xlink="http://www.w3.org/1999/xlink" width="341pt" height="200pt" viewBox="0 0 341 200">
<defs>
<clipPath id="clip-0">
<path clip-rule="nonzero" d="M 0 0 L 340.800781 0 L 340.800781 199.921875 L 0 199.921875 Z M 0 0 "/>
</clipPath>
<clipPath id="clip-1">
<path clip-rule="nonzero" d="M 26.648438 37.992188 L 313.207031 37.992188 L 313.207031 161.785156 L 26.648438 161.785156 Z M 26.648438 37.992188 "/>
</clipPath>
</defs>
<g clip-path="url(#clip-0)">
<path fill-rule="nonzero" fill="rgb(100%, 100%, 100%)" fill-opacity="1" d="M 0 0 L 340.800781 0 L 340.800781 199.921875 L 0 199.921875 Z M 0 0 "/>
</g>
<path fill-rule="nonzero" fill="rgb(100%, 100%, 100%)" fill-opacity="1" d="M 0 0 L 340.5 0 L 340.5 199.5 L 0 199.5 Z M 0 0 "/>
<g clip-path="url(#clip-1)">
<path fill-rule="nonzero" fill="rgb(0%, 20.783997%, 41.960144%)" fill-opacity="1" d="M 121.992188 63.988281 L 92.804688 113.152344 L 92.804688 146.222656 C 96.167969 154.183594 104.65625 155.242188 112.796875 155.597656 L 112.796875 160.191406 L 55.65625 160.191406 L 55.65625 155.597656 C 63.792969 155.242188 73.703125 154.007812 76.355469 148.699219 L 76.355469 114.566406 L 46.636719 64.34375 C 41.507812 55.851562 36.554688 53.027344 26.648438 52.316406 L 26.648438 47.71875 L 76.355469 47.71875 L 76.355469 52.316406 C 66.980469 52.847656 63.972656 54.617188 61.320312 56.738281 L 88.914062 104.488281 L 115.976562 56.914062 C 113.148438 54.792969 109.433594 52.847656 100.058594 52.316406 L 100.058594 47.71875 L 142.511719 47.71875 L 142.511719 52.316406 C 132.960938 52.671875 126.945312 55.851562 121.992188 63.988281 Z M 180.007812 161.785156 C 170.460938 161.785156 165.859375 155.242188 165.503906 150.644531 C 159.492188 157.011719 151.707031 161.785156 144.277344 161.785156 C 134.726562 161.785156 126.589844 155.949219 126.589844 145.871094 C 126.589844 140.917969 127.828125 135.789062 130.304688 131.722656 L 165.503906 118.988281 L 165.503906 105.902344 C 165.503906 97.945312 161.792969 90.339844 153.832031 90.339844 C 149.054688 90.339844 144.453125 96.171875 144.101562 105.195312 L 128.179688 107.847656 L 128.179688 106.078125 C 133.488281 90.160156 151 83.972656 159.492188 83.972656 C 175.589844 83.972656 181.425781 92.460938 181.246094 105.546875 L 180.71875 142.683594 C 180.539062 149.9375 184.433594 151.707031 187.96875 151.707031 C 190.800781 151.707031 193.628906 149.9375 196.992188 146.578125 L 196.992188 151.707031 C 193.101562 156.304688 186.203125 161.785156 180.007812 161.785156 Z M 144.632812 132.960938 C 143.925781 135.789062 143.394531 138.265625 143.394531 142.15625 C 143.394531 147.460938 146.402344 152.765625 152.238281 152.765625 C 157.546875 152.765625 160.550781 151 165.328125 147.285156 L 165.503906 123.410156 C 160.90625 125.53125 149.585938 130.484375 144.632812 132.960938 Z M 198.585938 160.191406 L 198.585938 156.125 C 206.542969 155.597656 208.839844 153.828125 210.257812 150.820312 L 210.257812 59.214844 C 210.257812 53.199219 209.375 50.726562 197.167969 49.664062 L 197.167969 46.125 L 229.539062 37.992188 L 230.601562 41 L 225.472656 47.367188 L 225.472656 150.820312 C 227.242188 154.359375 230.601562 155.597656 237.851562 156.125 L 237.851562 160.195312 L 198.585938 160.195312 Z M 280.304688 161.609375 C 261.734375 161.609375 247.40625 146.929688 247.40625 126.417969 C 247.40625 101.304688 262.796875 84.148438 284.554688 84.148438 C 302.0625 84.148438 311.792969 94.054688 311.792969 109.792969 L 311.792969 112.976562 L 264.035156 112.625 C 263.683594 114.566406 263.503906 117.753906 263.503906 121.640625 C 263.503906 139.679688 274.820312 151.53125 289.859375 151.53125 C 298.882812 151.53125 303.480469 148.34375 310.554688 142.332031 L 313.207031 146.398438 C 303.125 155.597656 294.8125 161.609375 280.304688 161.609375 Z M 281.898438 89.632812 C 273.054688 89.632812 266.863281 96.707031 264.742188 107.847656 L 295.875 107.492188 C 295.875 98.121094 290.035156 89.632812 281.898438 89.632812 Z M 281.898438 89.632812 "/>
</g>
</svg>
